<?xml version="1.0" standalone="no"?>
<!DOCTYPE svg PUBLIC "-//W3C//DTD SVG 20010904//EN"
 "http://www.w3.org/TR/2001/REC-SVG-20010904/DTD/svg10.dtd">
<svg version="1.0" xmlns="http://www.w3.org/2000/svg"
 width="306.000000pt" height="306.000000pt" viewBox="0 0 306.000000 306.000000"
 preserveAspectRatio="xMidYMid meet">
<metadata>
Created by potrace 1.11, written by Peter Selinger 2001-2013
</metadata>
<g transform="translate(0.000000,306.000000) scale(0.100000,-0.100000)"
fill="#000000" stroke="none">
<path d="M1493 2929 c-55 -3 -112 -9 -126 -12 -13 -4 -42 -9 -63 -13 -168 -25
-417 -118 -558 -208 -31 -20 -58 -36 -61 -36 -2 0 -26 -14 -52 -32 -98 -66
-252 -245 -323 -375 -21 -39 -37 -58 -42 -50 -4 6 -9 9 -11 7 -22 -24 -111
-259 -102 -268 3 -3 -2 -13 -11 -23 -8 -9 -18 -32 -21 -51 -2 -18 -14 -60 -25
-92 -21 -63 -27 -132 -28 -285 0 -52 -2 -92 -4 -90 -2 2 -6 42 -10 89 -3 47
-6 86 -6 88 0 1 -5 2 -10 2 -7 0 -9 -44 -5 -127 5 -139 13 -202 26 -218 4 -6
8 -24 7 -40 0 -37 30 -114 89 -225 25 -47 52 -98 61 -115 38 -75 151 -200 270
-302 31 -26 81 -71 110 -100 63 -61 285 -207 340 -223 61 -19 281 3 323 32 51
36 90 82 122 144 19 36 15 120 -6 138 -7 6 -26 29 -42 51 -77 106 -124 129
-281 139 -30 2 -77 15 -110 31 -37 17 -60 23 -62 16 -2 -7 -17 -4 -42 9 -22
11 -46 20 -55 20 -8 0 -23 9 -32 20 -10 11 -22 20 -28 20 -15 0 -58 46 -84 90
-27 46 -26 54 4 34 39 -25 32 3 -12 48 -26 26 -34 41 -27 48 8 8 23 -6 50 -45
39 -57 62 -76 99 -82 10 -2 34 -12 53 -23 76 -45 74 -6 -2 43 -47 30 -126 107
-109 107 6 0 32 -21 58 -46 61 -58 84 -45 26 14 -23 23 -41 48 -41 57 0 32
-31 77 -49 72 -14 -3 -27 10 -51 49 -34 57 -84 183 -76 192 3 3 10 -7 15 -22
13 -33 42 -36 34 -3 -3 12 -9 27 -13 32 -9 12 -22 137 -22 209 0 28 -4 56 -9
62 -25 31 -14 128 19 166 7 9 11 22 7 27 -3 6 2 23 13 39 11 15 24 41 29 57 6
18 16 29 25 27 9 -1 30 22 53 60 63 106 80 128 93 128 6 0 12 9 12 20 0 12 12
26 30 35 16 9 30 21 30 27 0 18 123 134 182 171 44 28 154 77 174 77 2 0 0 -9
-6 -20 -10 -18 -8 -20 27 -20 l38 -1 -40 -25 c-71 -45 -150 -81 -164 -76 -9 3
-11 0 -6 -8 6 -9 4 -11 -4 -6 -29 18 -242 -153 -304 -243 -17 -25 -34 -48 -37
-51 -23 -17 -85 -169 -94 -229 -3 -25 -12 -48 -18 -52 -10 -6 -10 -11 -1 -20
8 -8 15 -4 27 19 9 17 16 36 16 41 0 6 16 43 35 84 19 41 35 78 35 84 0 6 7
16 15 23 8 7 13 16 10 20 -3 4 2 13 10 20 8 7 15 19 15 26 0 8 3 14 8 14 4 0
51 43 104 95 53 52 103 95 111 95 7 0 17 4 23 10 22 22 254 125 334 149 99 28
294 37 400 16 124 -24 276 -93 330 -150 13 -14 31 -25 39 -25 15 0 33 -18 135
-135 20 -22 36 -46 36 -53 0 -7 11 -29 24 -50 33 -49 103 -262 111 -337 4 -33
9 -64 12 -68 6 -10 4 -219 -2 -267 -17 -129 -79 -283 -161 -401 -69 -100 -184
-220 -257 -271 -33 -22 -56 -45 -54 -52 5 -12 -111 -96 -177 -129 l-30 -14 37
-5 c29 -3 44 2 70 22 29 24 96 54 103 47 2 -2 -25 -19 -59 -39 -34 -20 -75
-48 -92 -62 -48 -41 -3 -33 85 15 41 22 69 35 62 28 -7 -7 -38 -28 -69 -45
-32 -17 -59 -36 -61 -42 -4 -14 56 -8 121 12 26 8 47 13 47 11 0 -2 -33 -22
-74 -44 -41 -22 -81 -49 -88 -58 -7 -10 -30 -26 -50 -35 -21 -10 -38 -23 -38
-29 0 -11 20 -7 79 17 27 11 36 12 42 2 5 -8 11 -9 21 -1 7 6 31 16 53 23 22
7 64 26 93 43 29 16 55 27 58 25 2 -3 -43 -29 -101 -58 -58 -30 -105 -57 -105
-61 0 -9 119 39 175 71 77 43 130 75 140 82 6 5 23 19 40 33 20 16 31 21 36
13 8 -12 23 -3 87 48 17 15 32 24 32 21 0 -2 -31 -30 -70 -62 -38 -31 -68 -61
-67 -67 2 -11 -147 -118 -167 -118 -7 0 -24 -9 -38 -19 -13 -11 -50 -31 -81
-46 -31 -14 -57 -30 -57 -35 0 -5 8 -7 18 -3 12 4 14 3 6 -6 -6 -6 -43 -19
-82 -28 -75 -18 -99 -39 -34 -30 118 16 168 31 280 83 29 13 61 24 71 24 10 0
29 8 42 18 13 10 36 23 52 30 15 6 27 18 27 26 0 8 13 17 29 21 15 3 44 21 64
39 20 18 38 31 41 29 6 -7 100 78 116 105 8 14 26 37 40 52 78 80 193 247 193
280 0 8 8 26 17 40 44 64 93 200 71 200 -6 0 -4 18 5 47 50 157 68 309 50 433
-3 25 -8 72 -11 105 -15 217 -125 535 -246 715 -55 80 -75 101 -219 224 -130
111 -404 252 -573 295 -41 11 -117 23 -168 27 -52 3 -103 7 -114 8 -11 1 -66
-1 -122 -5z m312 -64 l70 -24 -82 5 c-45 3 -104 9 -130 14 -46 7 -46 8 -11 9
20 0 40 6 43 11 9 15 33 12 110 -15z m-440 -75 c-3 -5 -14 -10 -23 -9 -14 0
-13 2 3 9 27 11 27 11 20 0z m-80 -20 c-11 -5 -29 -8 -40 -8 -16 0 -15 2 5 8
34 11 60 11 35 0z m-110 -47 c-48 -16 -190 -51 -193 -48 -7 7 183 63 192 57 6
-3 6 -7 1 -9z m-415 -70 c-14 -9 -41 -33 -60 -53 -41 -43 -128 -106 -135 -98
-12 11 183 167 210 168 5 0 -2 -8 -15 -17z m1571 -130 l34 -36 -32 21 c-17 12
-36 22 -42 22 -6 0 -11 7 -11 15 0 8 -22 26 -50 40 -27 14 -50 28 -50 31 0 13
121 -61 151 -93z m158 46 c34 -28 19 -36 -18 -9 -17 12 -31 23 -31 26 0 11 27
1 49 -17z m-1164 -79 c-3 -5 -12 -10 -18 -10 -7 0 -6 4 3 10 19 12 23 12 15 0z
m1076 -41 c19 -16 20 -18 4 -10 -34 17 -51 31 -39 31 7 0 22 -9 35 -21z
m-1927 -87 c-5 -4 -27 -30 -47 -59 -21 -29 -46 -54 -55 -57 -10 -4 -37 -43
-60 -89 -23 -45 -42 -73 -41 -62 0 39 55 126 128 205 40 45 76 78 79 75 4 -3
2 -9 -4 -13z m2036 -42 c6 -11 7 -20 3 -20 -5 0 -14 9 -21 20 -7 11 -8 20 -2
20 5 0 14 -9 20 -20z m-1966 -82 c-10 -13 -21 -25 -24 -28 -18 -16 -120 -154
-120 -161 0 -5 -7 -9 -15 -9 -13 0 -12 6 4 38 26 50 121 162 138 162 7 0 13 5
13 10 0 6 5 10 12 10 6 0 3 -10 -8 -22z m156 -28 c-6 -11 -13 -20 -16 -20 -2
0 0 9 6 20 6 11 13 20 16 20 2 0 0 -9 -6 -20z m-345 -49 c-8 -17 -19 -33 -25
-36 -5 -3 -1 10 11 29 25 43 36 48 14 7z m50 -141 c3 -5 -1 -10 -10 -10 -9 0
-13 5 -10 10 3 6 8 10 10 10 2 0 7 -4 10 -10z m-110 -110 c-24 -71 -45 -111
-31 -60 13 48 49 141 52 137 2 -2 -7 -37 -21 -77z m-169 -757 c-5 -5 -36 92
-35 109 1 7 10 -14 20 -46 11 -33 17 -61 15 -63z m454 -104 c6 -11 9 -25 7
-32 -2 -7 -11 3 -21 21 -9 17 -12 32 -7 32 6 0 15 -9 21 -21z m1669 -732 c-2
-2 -22 -13 -44 -25 l-40 -23 28 26 c15 14 35 25 44 25 9 0 14 -1 12 -3z m-100
-51 c-2 -2 -15 -9 -29 -16 -23 -12 -24 -12 -11 3 7 10 20 17 29 17 8 0 13 -2
11 -4z m-89 -46 c-19 -11 -39 -19 -45 -19 -5 0 6 8 25 19 19 11 40 19 45 19 6
0 -6 -8 -25 -19z"/>
<path d="M1121 2071 c-18 -11 6 -34 40 -38 45 -5 75 -27 97 -71 17 -34 18 -71
17 -507 -1 -424 -3 -473 -18 -502 -22 -41 -50 -59 -104 -68 -38 -6 -51 -20
-31 -35 5 -4 516 -5 540 -1 4 0 5 7 2 15 -3 8 -24 17 -47 20 -48 8 -66 19 -92
60 -17 25 -19 53 -20 275 -1 135 1 252 3 259 6 16 166 14 220 -2 63 -19 106
-80 116 -166 6 -49 10 -55 30 -47 13 5 15 43 15 246 0 132 -3 243 -7 245 -17
10 -32 -12 -38 -55 -7 -55 -40 -116 -77 -143 -22 -16 -48 -22 -125 -26 -154
-8 -137 -39 -137 248 0 203 2 248 14 253 8 3 89 5 181 4 194 -2 247 -15 310
-77 37 -37 75 -121 72 -161 -1 -13 5 -17 21 -15 12 2 21 8 20 13 -1 6 -4 69
-8 140 -4 72 -9 133 -11 136 -5 8 -970 8 -983 0z"/>
</g>
</svg>
